<svg xmlns="http://www.w3.org/2000/svg" width="52" height="15" viewBox="0 0 52 15" fill="none">
<path d="M0.864 12V3.096H2.736V12H0.864ZM7.19738 12.096C6.66138 12.096 6.18138 11.992 5.75738 11.784C5.34138 11.576 5.01738 11.26 4.78538 10.836C4.55338 10.404 4.43738 9.856 4.43738 9.192V5.544H6.30938V8.916C6.30938 9.452 6.42138 9.848 6.64538 10.104C6.87738 10.352 7.20138 10.476 7.61738 10.476C7.90538 10.476 8.16138 10.416 8.38538 10.296C8.60938 10.168 8.78538 9.976 8.91338 9.72C9.04138 9.456 9.10538 9.128 9.10538 8.736V5.544H10.9774V12H9.20138V10.224L9.52538 10.74C9.30938 11.188 8.98938 11.528 8.56538 11.76C8.14938 11.984 7.69338 12.096 7.19738 12.096ZM16.6357 5.448C17.1477 5.448 17.6037 5.552 18.0037 5.76C18.4117 5.96 18.7317 6.272 18.9637 6.696C19.1957 7.112 19.3117 7.648 19.3117 8.304V12H17.4397V8.592C17.4397 8.072 17.3237 7.688 17.0917 7.44C16.8677 7.192 16.5477 7.068 16.1317 7.068C15.8357 7.068 15.5677 7.132 15.3277 7.26C15.0957 7.38 14.9117 7.568 14.7757 7.824C14.6477 8.08 14.5837 8.408 14.5837 8.808V12H12.7117V5.544H14.4997V7.332L14.1637 6.792C14.3957 6.36 14.7277 6.028 15.1597 5.796C15.5917 5.564 16.0837 5.448 16.6357 5.448ZM24.2594 12.096C23.5234 12.096 22.8754 11.952 22.3154 11.664C21.7634 11.376 21.3354 10.984 21.0314 10.488C20.7274 9.984 20.5754 9.412 20.5754 8.772C20.5754 8.124 20.7234 7.552 21.0194 7.056C21.3234 6.552 21.7354 6.16 22.2554 5.88C22.7754 5.592 23.3634 5.448 24.0194 5.448C24.6514 5.448 25.2194 5.584 25.7234 5.856C26.2354 6.12 26.6394 6.504 26.9354 7.008C27.2314 7.504 27.3794 8.1 27.3794 8.796C27.3794 8.868 27.3754 8.952 27.3674 9.048C27.3594 9.136 27.3514 9.22 27.3434 9.3H22.0994V8.208H26.3594L25.6394 8.532C25.6394 8.196 25.5714 7.904 25.4354 7.656C25.2994 7.408 25.1114 7.216 24.8714 7.08C24.6314 6.936 24.3514 6.864 24.0314 6.864C23.7114 6.864 23.4274 6.936 23.1794 7.08C22.9394 7.216 22.7514 7.412 22.6154 7.668C22.4794 7.916 22.4114 8.212 22.4114 8.556V8.844C22.4114 9.196 22.4874 9.508 22.6394 9.78C22.7994 10.044 23.0194 10.248 23.2994 10.392C23.5874 10.528 23.9234 10.596 24.3074 10.596C24.6514 10.596 24.9514 10.544 25.2074 10.44C25.4714 10.336 25.7114 10.18 25.9274 9.972L26.9234 11.052C26.6274 11.388 26.2554 11.648 25.8074 11.832C25.3594 12.008 24.8434 12.096 24.2594 12.096Z" fill="#F8C203"/>
<path d="M33.72 12.072C33.104 12.072 32.552 11.936 32.064 11.664C31.584 11.392 31.204 11.012 30.924 10.524C30.644 10.036 30.504 9.468 30.504 8.82C30.504 8.172 30.644 7.608 30.924 7.128C31.204 6.64 31.584 6.26 32.064 5.988C32.552 5.716 33.104 5.58 33.72 5.58C34.256 5.58 34.74 5.7 35.172 5.94C35.604 6.18 35.948 6.54 36.204 7.02C36.468 7.5 36.6 8.1 36.6 8.82C36.6 9.54 36.472 10.14 36.216 10.62C35.968 11.1 35.628 11.464 35.196 11.712C34.764 11.952 34.272 12.072 33.72 12.072ZM33.816 11.064C34.216 11.064 34.576 10.972 34.896 10.788C35.224 10.604 35.48 10.344 35.664 10.008C35.856 9.664 35.952 9.268 35.952 8.82C35.952 8.364 35.856 7.972 35.664 7.644C35.48 7.308 35.224 7.048 34.896 6.864C34.576 6.68 34.216 6.588 33.816 6.588C33.408 6.588 33.044 6.68 32.724 6.864C32.404 7.048 32.148 7.308 31.956 7.644C31.764 7.972 31.668 8.364 31.668 8.82C31.668 9.268 31.764 9.664 31.956 10.008C32.148 10.344 32.404 10.604 32.724 10.788C33.044 10.972 33.408 11.064 33.816 11.064ZM35.988 12V10.284L36.06 8.808L35.94 7.332V3.096H37.092V12H35.988ZM42.1037 12.072C41.4237 12.072 40.8237 11.932 40.3037 11.652C39.7917 11.372 39.3917 10.988 39.1037 10.5C38.8237 10.012 38.6837 9.452 38.6837 8.82C38.6837 8.188 38.8197 7.628 39.0917 7.14C39.3717 6.652 39.7517 6.272 40.2317 6C40.7197 5.72 41.2677 5.58 41.8757 5.58C42.4917 5.58 43.0357 5.716 43.5077 5.988C43.9797 6.26 44.3477 6.644 44.6117 7.14C44.8837 7.628 45.0197 8.2 45.0197 8.856C45.0197 8.904 45.0157 8.96 45.0077 9.024C45.0077 9.088 45.0037 9.148 44.9957 9.204H39.5837V8.376H44.3957L43.9277 8.664C43.9357 8.256 43.8517 7.892 43.6757 7.572C43.4997 7.252 43.2557 7.004 42.9437 6.828C42.6397 6.644 42.2837 6.552 41.8757 6.552C41.4757 6.552 41.1197 6.644 40.8077 6.828C40.4957 7.004 40.2517 7.256 40.0757 7.584C39.8997 7.904 39.8117 8.272 39.8117 8.688V8.88C39.8117 9.304 39.9077 9.684 40.0997 10.02C40.2997 10.348 40.5757 10.604 40.9277 10.788C41.2797 10.972 41.6837 11.064 42.1397 11.064C42.5157 11.064 42.8557 11 43.1597 10.872C43.4717 10.744 43.7437 10.552 43.9757 10.296L44.6117 11.04C44.3237 11.376 43.9637 11.632 43.5317 11.808C43.1077 11.984 42.6317 12.072 42.1037 12.072ZM45.5196 12L48.2556 8.448L48.2436 9.036L45.6396 5.64H46.9236L48.9156 8.256H48.4236L50.4156 5.64H51.6756L49.0356 9.06L49.0476 8.448L51.8076 12H50.4996L48.3996 9.216L48.8676 9.288L46.8036 12H45.5196Z" fill="#828282"/>
</svg>